<svg width="1413" height="301" viewBox="0 0 1413 301" fill="none" xmlns="http://www.w3.org/2000/svg">
<path d="M0 298.32V2.64H50.16C83.688 2.64 100.32 19.272 100.32 52.8V102.168C100.32 120.384 95.568 133.584 85.8 141.768C95.568 149.952 100.32 163.152 100.32 181.368V248.16C100.32 281.688 83.688 298.32 50.16 298.32H0ZM36.96 266.64H50.16C59.136 266.64 63.36 262.152 63.36 253.44V170.808C63.36 162.096 59.136 157.608 50.16 157.608H36.96V266.64ZM36.96 125.928H50.16C59.136 125.928 63.36 121.44 63.36 112.728V47.52C63.36 38.808 59.136 34.32 50.16 34.32H36.96V125.928Z" fill="#F3F9FF"/>
<path d="M116.273 298.056V2.64H203.393V34.32H153.233V125.928H190.193V157.608H153.233V266.376H203.393V298.056H116.273Z" fill="#F3F9FF"/>
<path d="M219.141 298.056V2.64H258.741L285.141 166.848V2.64H319.461V298.056H279.861L253.461 133.848V298.056H219.141Z" fill="#F3F9FF"/>
<path d="M435.734 250.536C435.734 284.064 419.102 300.696 385.574 300.696C352.046 300.696 335.414 284.064 335.414 250.536V221.496H372.374V255.816C372.374 264.528 376.598 269.016 385.574 269.016C394.286 269.016 398.774 264.528 398.774 255.816V34.32H345.974V2.64H435.734V250.536Z" fill="#F3F9FF"/>
<path d="M516.203 298.056L510.395 226.776H485.051L479.242 298.056H447.562L471.323 2.64H526.763L550.523 298.056H516.203ZM487.427 195.096H508.018L497.723 68.376L487.427 195.096Z" fill="#F3F9FF"/>
<path d="M719.534 298.056H682.574V150.216L658.814 298.056H627.134L603.374 150.216V298.056H566.414V2.64H616.574L642.974 187.176L669.374 2.64H719.534V298.056Z" fill="#F3F9FF"/>
<path d="M735.281 298.056V2.64H772.241V298.056H735.281Z" fill="#F3F9FF"/>
<path d="M788.133 298.056V2.64H827.733L854.133 166.848V2.64H888.453V298.056H848.853L822.453 133.848V298.056H788.133Z" fill="#F3F9FF"/>
<path d="M1006.05 298.056V34.32H970.406V2.64H1078.65V34.32H1043.01V298.056H1006.05Z" fill="#F3F9FF"/>
<path d="M1145.27 298.056L1139.46 226.776H1114.11L1108.31 298.056H1076.62L1100.39 2.64H1155.82L1179.58 298.056H1145.27ZM1116.49 195.096H1137.08L1126.79 68.376L1116.49 195.096Z" fill="#F3F9FF"/>
<path d="M1195.48 298.056V2.64H1235.08L1261.48 166.848V2.64H1295.8V298.056H1256.2L1229.8 133.848V298.056H1195.48Z" fill="#F3F9FF"/>
<path d="M1311.75 250.536V50.16C1311.75 16.632 1328.38 0 1361.91 0C1395.44 0 1412.07 16.632 1412.07 50.16V78.936H1375.11V44.88C1375.11 36.168 1370.89 31.68 1361.91 31.68C1353.2 31.68 1348.71 36.168 1348.71 44.88V255.816C1348.71 264.528 1353.2 269.016 1361.91 269.016C1370.89 269.016 1375.11 264.528 1375.11 255.816V157.872H1362.17V126.192H1412.07V250.536C1412.07 284.064 1395.44 300.696 1361.91 300.696C1328.38 300.696 1311.75 284.064 1311.75 250.536Z" fill="#F3F9FF"/>
</svg>
