<svg width="747" height="747" viewBox="0 0 747 747" fill="none" xmlns="http://www.w3.org/2000/svg">
<g clip-path="url(#clip0_176_8)">
<path d="M373.5 583.594C346.536 583.617 319.986 576.958 296.224 564.212C272.462 551.465 252.23 533.029 237.336 510.551L276.227 484.71C286.873 500.764 301.327 513.933 318.3 523.043C335.273 532.154 354.237 536.921 373.5 536.921C392.763 536.921 411.727 532.154 428.7 523.043C445.673 513.933 460.127 500.764 470.773 484.71L509.664 510.551C494.77 533.029 474.538 551.465 450.776 564.212C427.015 576.958 400.464 583.617 373.5 583.594ZM466.875 326.812C457.641 326.812 448.615 329.551 440.937 334.681C433.259 339.811 427.275 347.102 423.741 355.633C420.208 364.164 419.283 373.552 421.085 382.608C422.886 391.665 427.333 399.984 433.862 406.513C440.391 413.042 448.71 417.489 457.767 419.29C466.823 421.092 476.211 420.167 484.742 416.634C493.273 413.1 500.564 407.116 505.694 399.438C510.824 391.76 513.563 382.734 513.563 373.5C513.625 367.351 512.46 361.252 510.136 355.56C507.812 349.867 504.375 344.696 500.027 340.348C495.679 336 490.508 332.563 484.815 330.239C479.123 327.915 473.023 326.75 466.875 326.812ZM280.125 326.812C270.891 326.812 261.865 329.551 254.187 334.681C246.509 339.811 240.525 347.102 236.991 355.633C233.458 364.164 232.533 373.552 234.335 382.608C236.136 391.665 240.583 399.984 247.112 406.513C253.641 413.042 261.96 417.489 271.017 419.29C280.073 421.092 289.461 420.167 297.992 416.634C306.523 413.1 313.814 407.116 318.944 399.438C324.074 391.76 326.813 382.734 326.813 373.5C326.875 367.351 325.71 361.252 323.386 355.56C321.062 349.867 317.625 344.696 313.277 340.348C308.929 336 303.758 332.563 298.065 330.239C292.373 327.915 286.273 326.75 280.125 326.812Z" fill="#325483"/>
<path d="M700.312 373.5V326.812H653.625V233.438C653.594 208.682 643.746 184.95 626.242 167.446C608.737 149.941 585.005 140.093 560.25 140.062H513.562V46.6875H466.875V140.062H280.125V46.6875H233.438V140.062H186.75C161.995 140.093 138.263 149.941 120.758 167.446C103.253 184.95 93.4059 208.682 93.375 233.438V326.812H46.6875V373.5H93.375V490.219H46.6875V536.906H93.375V606.938C93.4059 631.693 103.253 655.425 120.758 672.929C138.263 690.434 161.995 700.282 186.75 700.312H560.25C585.005 700.282 608.737 690.434 626.242 672.929C643.746 655.425 653.594 631.693 653.625 606.938V536.906H700.312V490.219H653.625V373.5H700.312ZM606.938 606.938C606.938 619.32 602.019 631.195 593.263 639.951C584.507 648.706 572.632 653.625 560.25 653.625H186.75C174.368 653.625 162.493 648.706 153.737 639.951C144.981 631.195 140.062 619.32 140.062 606.938V233.438C140.062 221.055 144.981 209.18 153.737 200.424C162.493 191.669 174.368 186.75 186.75 186.75H560.25C572.632 186.75 584.507 191.669 593.263 200.424C602.019 209.18 606.938 221.055 606.938 233.438V606.938Z" fill="#325483"/>
</g>
<defs>
<clipPath id="clip0_176_8">
<rect width="747" height="747" fill="white"/>
</clipPath>
</defs>
</svg>
