<svg width="488" height="488" viewBox="0 0 488 488" fill="none" xmlns="http://www.w3.org/2000/svg">
<g clip-path="url(#clip0_176_17)">
<path d="M132.167 406.667C101.328 406.667 74.9825 395.992 53.1309 374.642C31.2794 353.292 20.3468 327.197 20.3333 296.358C20.3333 269.925 28.2971 246.372 44.2249 225.7C60.1527 205.028 80.9944 191.811 106.75 186.05C115.222 154.872 132.167 129.625 157.583 110.308C183 90.9916 211.805 81.3333 244 81.3333C283.65 81.3333 317.288 95.1464 344.914 122.773C372.54 150.399 386.347 184.03 386.333 223.667C409.717 226.378 429.121 236.463 444.548 253.923C459.974 271.382 467.68 291.797 467.667 315.167C467.667 340.583 458.774 362.191 440.989 379.989C423.204 397.788 401.597 406.68 376.167 406.667H132.167Z" fill="#325483"/>
</g>
<defs>
<clipPath id="clip0_176_17">
<rect width="488" height="488" fill="white"/>
</clipPath>
</defs>
</svg>
