<svg width="514" height="514" viewBox="0 0 514 514" fill="none" xmlns="http://www.w3.org/2000/svg">
<g clip-path="url(#clip0_176_13)">
<path d="M417.197 97.2316C366.93 73.7789 312.438 60.7387 257 58.8958C201.562 60.7387 147.07 73.7789 96.8033 97.2316C90.3498 100.264 84.9016 105.084 81.1055 111.12C77.3093 117.156 75.3245 124.154 75.3867 131.284V382.716C75.3245 389.846 77.3093 396.844 81.1055 402.88C84.9016 408.916 90.3498 413.736 96.8033 416.768C147.07 440.221 201.562 453.261 257 455.104C312.438 453.261 366.93 440.221 417.197 416.768C423.65 413.736 429.098 408.916 432.895 402.88C436.691 396.844 438.675 389.846 438.613 382.716V131.284C438.675 124.154 436.691 117.156 432.895 111.12C429.098 105.084 423.65 100.264 417.197 97.2316ZM406.917 268.565C359.98 290.939 308.961 303.475 257 305.402C205.039 303.475 154.02 290.939 107.083 268.565V185.897C154.4 206.727 205.319 218.147 257 219.521C308.681 218.147 359.6 206.727 406.917 185.897V268.565ZM110.296 126.358C156.315 104.811 206.217 92.7909 257 91.0208C307.848 92.8208 357.813 104.839 403.918 126.358C404.82 126.827 405.576 127.534 406.105 128.403C406.633 129.271 406.914 130.268 406.917 131.284V149.917C359.98 172.291 308.961 184.827 257 186.753C205.039 184.827 154.02 172.291 107.083 149.917V130.642C107.196 129.708 107.552 128.821 108.116 128.07C108.68 127.318 109.432 126.727 110.296 126.358ZM403.704 387.642C357.685 409.189 307.783 421.209 257 422.979C206.152 421.179 156.187 409.161 110.082 387.642C109.18 387.172 108.424 386.465 107.895 385.597C107.367 384.729 107.086 383.732 107.083 382.716V303.688C154.4 324.518 205.319 335.939 257 337.312C308.681 335.939 359.6 324.518 406.917 303.688V382.716C406.92 383.761 406.618 384.784 406.047 385.659C405.476 386.534 404.662 387.224 403.704 387.642Z" fill="#325483"/>
</g>
<defs>
<clipPath id="clip0_176_13">
<rect width="514" height="514" fill="white"/>
</clipPath>
</defs>
</svg>
