<svg width="415" height="434" viewBox="0 0 415 434" fill="none" xmlns="http://www.w3.org/2000/svg">
<path fill-rule="evenodd" clip-rule="evenodd" d="M207.5 152.317C189.912 152.317 173.045 159.331 160.609 171.816C148.173 184.302 141.186 201.235 141.186 218.892C141.186 236.549 148.173 253.483 160.609 265.968C173.045 278.454 189.912 285.468 207.5 285.468C225.087 285.468 241.954 278.454 254.391 265.968C266.827 253.483 273.813 236.549 273.813 218.892C273.813 201.235 266.827 184.302 254.391 171.816C241.954 159.331 225.087 152.317 207.5 152.317ZM167.089 218.91C167.089 208.159 171.343 197.849 178.915 190.247C186.487 182.645 196.757 178.374 207.465 178.374C218.174 178.374 228.443 182.645 236.015 190.247C243.587 197.849 247.841 208.159 247.841 218.91C247.841 229.66 243.587 239.971 236.015 247.573C228.443 255.175 218.174 259.445 207.465 259.445C196.757 259.445 186.487 255.175 178.915 247.573C171.343 239.971 167.089 229.66 167.089 218.91Z" fill="#325483"/>
<path fill-rule="evenodd" clip-rule="evenodd" d="M44.6124 154.886C42.0761 159.298 40.4305 164.169 39.7695 169.22C39.1086 174.27 39.4453 179.403 40.7604 184.323C42.0756 189.243 44.3433 193.855 47.4342 197.895C50.5251 201.935 54.3785 205.324 58.7743 207.869C60.7028 208.985 62.3044 210.592 63.418 212.527C64.5315 214.462 65.1178 216.657 65.1178 218.892C65.1178 221.127 64.5315 223.323 63.418 225.258C62.3044 227.193 60.7028 228.799 58.7743 229.916C54.3799 232.462 50.5282 235.852 47.439 239.893C44.3499 243.933 42.0838 248.546 40.7703 253.466C39.4569 258.386 39.1216 263.517 39.7838 268.568C40.446 273.618 42.0927 278.487 44.6297 282.899L70.8439 328.486C73.3799 332.898 76.7568 336.765 80.7816 339.866C84.8064 342.967 89.4004 345.242 94.3011 346.561C99.2018 347.88 104.313 348.216 109.343 347.551C114.374 346.887 119.224 345.233 123.618 342.686C125.547 341.568 127.734 340.98 129.961 340.979C132.188 340.979 134.376 341.566 136.305 342.683C138.234 343.8 139.837 345.407 140.951 347.343C142.066 349.278 142.654 351.474 142.656 353.71C142.656 375.132 159.948 392.492 181.286 392.492H233.731C255.052 392.492 272.344 375.132 272.344 353.727C272.344 351.493 272.931 349.297 274.043 347.362C275.156 345.427 276.756 343.819 278.683 342.7C280.61 341.582 282.796 340.992 285.022 340.989C287.248 340.987 289.435 341.572 291.365 342.686C295.756 345.234 300.604 346.888 305.633 347.553C310.661 348.219 315.77 347.884 320.67 346.567C325.569 345.25 330.161 342.977 334.185 339.877C338.209 336.778 341.586 332.913 344.121 328.503L370.353 282.899C375.471 273.991 376.856 263.408 374.204 253.476C371.551 243.543 365.078 235.075 356.208 229.933C354.28 228.814 352.679 227.206 351.566 225.27C350.453 223.333 349.867 221.137 349.867 218.901C349.867 216.665 350.453 214.469 351.566 212.532C352.679 210.596 354.28 208.987 356.208 207.869C360.603 205.323 364.454 201.932 367.544 197.892C370.633 193.851 372.899 189.239 374.212 184.319C375.526 179.399 375.861 174.267 375.199 169.217C374.537 164.167 372.89 159.297 370.353 154.886L344.104 109.299C338.983 100.397 330.55 93.9029 320.66 91.2431C310.769 88.5834 300.232 89.9762 291.365 95.1154C289.435 96.2297 287.248 96.815 285.022 96.8126C282.796 96.8101 280.61 96.22 278.683 95.1014C276.756 93.9829 275.156 92.3753 274.043 90.4398C272.931 88.5043 272.344 86.3091 272.344 84.0745C272.344 62.6696 255.052 45.2922 233.714 45.2922H181.268C159.931 45.2922 142.639 62.6522 142.639 84.0745C142.64 86.3117 142.054 88.5098 140.941 90.4476C139.827 92.3855 138.225 93.9949 136.295 95.114C134.366 96.233 132.177 96.8223 129.948 96.8226C127.72 96.8228 125.531 96.234 123.601 95.1154C119.207 92.5684 114.356 90.9152 109.326 90.2504C104.296 89.5856 99.1845 89.9221 94.2838 91.2408C89.3831 92.5595 84.7891 94.8345 80.7643 97.9358C76.7395 101.037 73.3626 104.904 70.8266 109.316L44.6124 154.886ZM71.7431 185.318C70.2969 184.483 69.0289 183.37 68.0114 182.043C66.9939 180.716 66.247 179.201 65.8134 177.584C65.3798 175.966 65.268 174.279 65.4843 172.619C65.7007 170.958 66.241 169.357 67.0743 167.906L93.3058 122.336C94.1387 120.885 95.2481 119.614 96.5707 118.594C97.8932 117.575 99.403 116.826 101.014 116.393C102.624 115.959 104.304 115.848 105.958 116.067C107.611 116.285 109.205 116.829 110.649 117.666C136.414 132.596 168.594 113.934 168.594 84.0745C168.594 77.0437 174.283 71.3322 181.286 71.3322H233.731C240.735 71.3322 246.406 77.0437 246.406 84.0745C246.406 113.934 278.586 132.578 304.333 117.666C305.775 116.828 307.367 116.284 309.018 116.065C310.67 115.845 312.348 115.955 313.957 116.387C315.566 116.819 317.075 117.565 318.396 118.583C319.718 119.601 320.827 120.87 321.66 122.319L347.891 167.906C351.384 173.999 349.309 181.794 343.24 185.318C317.475 200.248 317.475 237.572 343.24 252.484C349.292 255.991 351.384 263.785 347.891 269.879L321.66 315.483C320.827 316.932 319.718 318.201 318.396 319.219C317.075 320.237 315.566 320.983 313.957 321.415C312.348 321.847 310.67 321.956 309.018 321.737C307.367 321.517 305.775 320.973 304.333 320.136C278.586 305.206 246.406 323.885 246.406 353.727C246.402 357.101 245.065 360.335 242.689 362.72C240.313 365.105 237.092 366.448 233.731 366.452H181.286C177.92 366.452 174.691 365.11 172.311 362.72C169.931 360.33 168.594 357.089 168.594 353.71C168.594 323.851 136.397 305.206 110.649 320.136C109.205 320.973 107.611 321.516 105.958 321.735C104.304 321.953 102.624 321.843 101.014 321.409C99.403 320.975 97.8932 320.227 96.5707 319.207C95.2481 318.188 94.1387 316.916 93.3058 315.466L67.0916 269.879C65.4127 266.952 64.9595 263.476 65.8317 260.215C66.7038 256.953 68.83 254.172 71.7431 252.484C97.4904 237.554 97.4904 200.23 71.7431 185.301" fill="#325483"/>
</svg>
