<svg width="300" height="300" viewBox="0 0 300 300" fill="none" xmlns="http://www.w3.org/2000/svg">
<path d="M150 72.9121C134.767 72.9121 119.876 77.425 107.21 85.88C94.5445 94.3351 84.6728 106.353 78.8433 120.413C73.0139 134.473 71.4887 149.945 74.4605 164.871C77.4323 179.797 84.7677 193.508 95.5391 204.269C106.31 215.03 120.034 222.359 134.974 225.328C149.915 228.297 165.401 226.773 179.474 220.949C193.547 215.125 205.576 205.263 214.039 192.609C222.502 179.955 227.019 165.078 227.019 149.859C227.044 139.747 225.069 129.73 221.207 120.384C217.345 111.037 211.673 102.544 204.516 95.3942C197.359 88.2441 188.859 82.5771 179.503 78.7189C170.148 74.8608 160.121 72.8874 150 72.9121ZM150 199.969C140.08 199.969 130.383 197.03 122.135 191.524C113.886 186.018 107.458 178.192 103.661 169.035C99.8652 159.879 98.8719 149.804 100.807 140.083C102.742 130.363 107.519 121.434 114.534 114.426C121.548 107.419 130.486 102.646 140.215 100.713C149.944 98.7791 160.029 99.7714 169.194 103.564C178.359 107.357 186.192 113.779 191.704 122.02C197.215 130.26 200.157 139.949 200.157 149.859C200.157 163.149 194.872 175.895 185.466 185.292C176.06 194.689 163.302 199.969 150 199.969ZM248.247 69.7216C248.247 73.4335 247.145 77.062 245.081 80.1483C243.017 83.2346 240.083 85.6401 236.65 87.0606C233.218 88.4811 229.441 88.8527 225.797 88.1286C222.153 87.4044 218.805 85.617 216.178 82.9923C213.551 80.3676 211.762 77.0235 211.037 73.383C210.312 69.7424 210.684 65.9689 212.106 62.5396C213.528 59.1102 215.936 56.1791 219.025 54.1169C222.114 52.0547 225.746 50.954 229.461 50.954C234.444 50.954 239.222 52.9313 242.745 56.4509C246.268 59.9705 248.247 64.7441 248.247 69.7216ZM299.155 88.4892C299.722 65.1542 291.008 42.5461 274.922 25.6178C266.577 17.5587 256.723 11.2225 245.925 6.97169C235.127 2.72085 223.596 0.638757 211.991 0.844542C187.57 -0.281514 112.43 -0.281514 88.0088 0.844542C64.6626 0.33949 42.0558 9.03661 25.0783 25.0547C8.99236 41.9831 0.278365 64.5912 0.845335 87.9262C-0.281778 112.324 -0.281778 187.394 0.845335 211.792C0.278365 235.127 8.99236 257.735 25.0783 274.664C42.0558 290.682 64.6626 299.379 88.0088 298.874C112.805 300.375 187.195 300.375 211.991 298.874C235.348 299.44 257.977 290.735 274.922 274.664C291.008 257.735 299.722 235.127 299.155 211.792C300.282 187.394 300.282 112.324 299.155 87.9262V88.4892ZM267.22 238.63C264.669 245.085 260.819 250.948 255.907 255.855C250.995 260.762 245.127 264.609 238.666 267.157C209.504 273.047 179.691 275.066 150 273.162C120.371 275.05 90.6226 273.031 61.5216 267.157C55.0606 264.609 49.1924 260.762 44.2807 255.855C39.369 250.948 35.5186 245.085 32.9681 238.63C25.0783 218.736 26.7689 171.817 26.7689 150.047C26.7689 128.277 25.0783 81.1698 32.9681 61.4639C35.4466 54.9453 39.2696 49.0202 44.1887 44.0734C49.1079 39.1265 55.0133 35.2684 61.5216 32.7495C90.6226 26.8756 120.371 24.8564 150 26.7438C179.691 24.8398 209.504 26.8591 238.666 32.7495C245.127 35.2976 250.995 39.1444 255.907 44.0515C260.819 48.9586 264.669 54.8213 267.22 61.2762C275.11 81.1698 273.231 128.089 273.231 149.859C273.231 171.63 275.11 218.736 267.22 238.442V238.63Z" fill="white"/>
</svg>
