<svg width="300" height="300" viewBox="0 0 300 300" fill="none" xmlns="http://www.w3.org/2000/svg">
<path d="M275.994 0.026914H25.6869C22.4606 -0.124237 19.2361 0.362375 16.1981 1.4589C13.1601 2.55542 10.3683 4.24032 7.9823 6.41714C5.59635 8.59396 3.66318 11.22 2.29347 14.1448C0.923756 17.0696 0.144393 20.2359 0 23.4623V274.315C0.189002 281.067 2.95596 287.491 7.73284 292.268C12.5097 297.044 18.934 299.811 25.6869 300H275.994C282.559 299.708 288.748 296.855 293.234 292.053C297.72 287.252 300.147 280.884 299.993 274.315V23.4623C300.047 20.322 299.458 17.2039 298.264 14.2991C297.07 11.3943 295.294 8.76411 293.047 6.56976C290.8 4.37542 288.128 2.66321 285.196 1.53812C282.263 0.413034 279.132 -0.101217 275.994 0.026914ZM93.7479 250.129H50.0614V116.454H93.7479V250.129ZM72.9358 96.2058C69.8873 96.312 66.8497 95.7867 64.014 94.6629C61.1782 93.5391 58.6054 91.8411 56.4573 89.6755C54.3092 87.51 52.6321 84.9236 51.5314 82.0789C50.4308 79.2343 49.9303 76.1927 50.0614 73.1454C49.9266 70.0651 50.4372 66.9906 51.5604 64.1193C52.6836 61.2479 54.3947 58.643 56.5838 56.4717C58.7729 54.3004 61.3917 52.6106 64.2723 51.5107C67.1529 50.4108 70.2315 49.9252 73.3108 50.0849C76.3593 49.9787 79.3969 50.504 82.2327 51.6278C85.0685 52.7516 87.6412 54.4496 89.7893 56.6152C91.9375 58.7807 93.6145 61.3671 94.7152 64.2118C95.8159 67.0565 96.3164 70.098 96.1853 73.1454C96.3201 76.2256 95.8095 79.3001 94.6863 82.1714C93.563 85.0428 91.852 87.6477 89.6629 89.819C87.4738 91.9903 84.8549 93.6801 81.9744 94.78C79.0938 95.8799 76.0151 96.3655 72.9358 96.2058ZM250.119 250.129H206.245V177.011C206.245 159.575 200.058 147.576 184.496 147.576C179.661 147.618 174.958 149.154 171.031 151.974C167.104 154.793 164.144 158.758 162.559 163.325C161.324 166.745 160.813 170.384 161.059 174.011V250.129H117.935V116.454H161.059V135.202C164.893 128.159 170.599 122.313 177.548 118.31C184.496 114.306 192.416 112.301 200.433 112.517C228.745 112.517 250.119 131.265 250.119 171.199V250.129Z" fill="white"/>
</svg>
