<svg width="192" height="192" viewBox="0 0 192 192" fill="none" xmlns="http://www.w3.org/2000/svg">
<g clip-path="url(#clip0_106_3)">
<path fill-rule="evenodd" clip-rule="evenodd" d="M107.864 35.7601C108.989 34.6365 110.514 34.0054 112.104 34.0054C113.694 34.0054 115.219 34.6365 116.344 35.7601L172.248 91.7601C173.372 92.8851 174.003 94.4101 174.003 96.0001C174.003 97.5901 173.372 99.1151 172.248 100.24L116.344 156.24C115.213 157.334 113.698 157.939 112.124 157.926C110.551 157.913 109.046 157.283 107.933 156.171C106.82 155.059 106.188 153.554 106.174 151.981C106.159 150.408 106.764 148.892 107.856 147.76L153.528 102.008L23.9999 102.096C22.4086 102.098 20.8817 101.468 19.755 100.344C18.6282 99.2207 17.9941 97.6954 17.9919 96.1041C17.9898 94.5128 18.6199 92.9858 19.7437 91.8591C20.8674 90.7324 22.3926 90.0982 23.9839 90.0961L153.536 90.0161L107.848 44.2401C106.724 43.1151 106.093 41.5901 106.093 40.0001C106.093 38.4101 106.724 36.8851 107.848 35.7601" fill="#F8D752"/>
</g>
<defs>
<clipPath id="clip0_106_3">
<rect width="192" height="192" fill="white"/>
</clipPath>
</defs>
</svg>
