<svg width="496" height="496" viewBox="0 0 496 496" fill="none" xmlns="http://www.w3.org/2000/svg">
<g clip-path="url(#clip0_176_25)">
<path d="M145.927 454.667C177.403 454.667 204.621 443.445 226.734 421.331C249.943 398.123 262.012 362.349 258.788 328.455L435.777 151.466C447.86 139.359 454.642 122.951 454.634 105.846C454.626 88.7417 447.829 72.3397 435.736 60.2434C411.391 35.8567 368.9 35.8567 344.555 60.2434L160.952 243.846C121.417 247.339 82.2741 275.28 82.2741 324.839C82.2741 331.101 82.7081 336.991 83.1421 342.612C84.7954 363.919 85.3948 371.917 52.7414 388.244C49.5294 389.849 46.7908 392.262 44.7955 395.247C42.8002 398.232 41.617 401.686 41.3625 405.267C41.108 408.849 41.791 412.435 43.3442 415.672C44.8974 418.909 47.2672 421.686 50.2201 423.729C52.0801 424.969 95.5421 454.667 145.927 454.667C145.9 454.667 145.9 454.667 145.927 454.667ZM373.777 89.4454C378.187 85.215 384.064 82.8564 390.174 82.8641C396.285 82.8718 402.156 85.2453 406.555 89.4867C408.704 91.6361 410.41 94.1879 411.573 96.9963C412.736 99.8047 413.335 102.815 413.335 105.855C413.335 108.895 412.736 111.905 411.573 114.713C410.41 117.522 408.704 120.073 406.555 122.223L248 280.777L215.223 248L373.777 89.4454ZM124.372 339.409C124 334.779 123.607 329.943 123.607 324.818C123.607 292.888 153.471 284.456 169.281 284.456C176.638 284.456 183.727 285.965 189.203 288.713C208.733 298.53 215.243 315.435 217.248 327.897C220.906 350.424 212.763 376.836 197.491 392.109C183.21 406.389 166.346 413.333 145.927 413.333C130.427 413.333 115.341 409.283 103.044 404.509C125.405 384.4 126.211 363.403 124.372 339.409Z" fill="#325483"/>
</g>
<defs>
<clipPath id="clip0_176_25">
<rect width="496" height="496" fill="white"/>
</clipPath>
</defs>
</svg>
